<mxfile host="app.diagrams.net" modified="2023-06-21T07:43:33.801Z" agent="Mozilla/5.0 (Windows NT 10.0; Win64; x64) AppleWebKit/537.36 (KHTML, like Gecko) Chrome/114.0.0.0 Safari/537.36" etag="hZVN_ztVsJEc8WiF_wE-" version="21.5.0" type="device">
  <diagram name="Page-1" id="sIkrP6v6_t3M1XFJ0KGJ">
    <mxGraphModel dx="1461" dy="655" grid="1" gridSize="10" guides="1" tooltips="1" connect="1" arrows="1" fold="1" page="1" pageScale="1" pageWidth="850" pageHeight="1100" math="0" shadow="0">
      <root>
        <mxCell id="0" />
        <mxCell id="1" parent="0" />
        <mxCell id="WAFCQDJ_wbhs0t9GBTwj-3" value="" style="rounded=1;whiteSpace=wrap;html=1;" vertex="1" parent="1">
          <mxGeometry x="365" y="550" width="120" height="60" as="geometry" />
        </mxCell>
        <mxCell id="WAFCQDJ_wbhs0t9GBTwj-1" value="Router" style="text;html=1;strokeColor=none;fillColor=none;align=center;verticalAlign=middle;whiteSpace=wrap;rounded=0;" vertex="1" parent="1">
          <mxGeometry x="395" y="565" width="60" height="30" as="geometry" />
        </mxCell>
        <mxCell id="WAFCQDJ_wbhs0t9GBTwj-2" value="" style="rounded=1;whiteSpace=wrap;html=1;" vertex="1" parent="1">
          <mxGeometry x="90" y="440" width="120" height="60" as="geometry" />
        </mxCell>
        <mxCell id="WAFCQDJ_wbhs0t9GBTwj-4" value="" style="rounded=1;whiteSpace=wrap;html=1;" vertex="1" parent="1">
          <mxGeometry x="275" y="440" width="120" height="60" as="geometry" />
        </mxCell>
        <mxCell id="WAFCQDJ_wbhs0t9GBTwj-6" value="" style="rounded=1;whiteSpace=wrap;html=1;" vertex="1" parent="1">
          <mxGeometry x="460" y="440" width="120" height="60" as="geometry" />
        </mxCell>
        <mxCell id="WAFCQDJ_wbhs0t9GBTwj-7" value="" style="rounded=1;whiteSpace=wrap;html=1;" vertex="1" parent="1">
          <mxGeometry x="640" y="440" width="120" height="60" as="geometry" />
        </mxCell>
        <mxCell id="WAFCQDJ_wbhs0t9GBTwj-8" value="HistoryRouter" style="text;html=1;strokeColor=none;fillColor=none;align=center;verticalAlign=middle;whiteSpace=wrap;rounded=0;" vertex="1" parent="1">
          <mxGeometry x="120" y="455" width="60" height="30" as="geometry" />
        </mxCell>
        <mxCell id="WAFCQDJ_wbhs0t9GBTwj-9" value="AutorRouter" style="text;html=1;strokeColor=none;fillColor=none;align=center;verticalAlign=middle;whiteSpace=wrap;rounded=0;" vertex="1" parent="1">
          <mxGeometry x="305" y="455" width="60" height="30" as="geometry" />
        </mxCell>
        <mxCell id="WAFCQDJ_wbhs0t9GBTwj-10" value="TypeRouter" style="text;html=1;strokeColor=none;fillColor=none;align=center;verticalAlign=middle;whiteSpace=wrap;rounded=0;" vertex="1" parent="1">
          <mxGeometry x="490" y="455" width="60" height="30" as="geometry" />
        </mxCell>
        <mxCell id="WAFCQDJ_wbhs0t9GBTwj-11" value="UserRouter" style="text;html=1;strokeColor=none;fillColor=none;align=center;verticalAlign=middle;whiteSpace=wrap;rounded=0;" vertex="1" parent="1">
          <mxGeometry x="670" y="455" width="60" height="30" as="geometry" />
        </mxCell>
        <mxCell id="WAFCQDJ_wbhs0t9GBTwj-12" value="" style="endArrow=none;html=1;rounded=0;entryX=0;entryY=0.5;entryDx=0;entryDy=0;exitX=0.5;exitY=1;exitDx=0;exitDy=0;" edge="1" parent="1" source="WAFCQDJ_wbhs0t9GBTwj-2" target="WAFCQDJ_wbhs0t9GBTwj-3">
          <mxGeometry width="50" height="50" relative="1" as="geometry">
            <mxPoint x="270" y="595" as="sourcePoint" />
            <mxPoint x="320" y="545" as="targetPoint" />
          </mxGeometry>
        </mxCell>
        <mxCell id="WAFCQDJ_wbhs0t9GBTwj-13" value="" style="endArrow=none;html=1;rounded=0;entryX=0.25;entryY=1;entryDx=0;entryDy=0;exitX=1;exitY=0.5;exitDx=0;exitDy=0;" edge="1" parent="1" source="WAFCQDJ_wbhs0t9GBTwj-3" target="WAFCQDJ_wbhs0t9GBTwj-7">
          <mxGeometry width="50" height="50" relative="1" as="geometry">
            <mxPoint x="490" y="580" as="sourcePoint" />
            <mxPoint x="660" y="510" as="targetPoint" />
          </mxGeometry>
        </mxCell>
        <mxCell id="WAFCQDJ_wbhs0t9GBTwj-14" value="" style="endArrow=none;html=1;rounded=0;" edge="1" parent="1">
          <mxGeometry width="50" height="50" relative="1" as="geometry">
            <mxPoint x="450" y="550" as="sourcePoint" />
            <mxPoint x="500" y="500" as="targetPoint" />
          </mxGeometry>
        </mxCell>
        <mxCell id="WAFCQDJ_wbhs0t9GBTwj-15" value="" style="endArrow=none;html=1;rounded=0;exitX=0.25;exitY=0;exitDx=0;exitDy=0;entryX=0.633;entryY=1.03;entryDx=0;entryDy=0;entryPerimeter=0;" edge="1" parent="1" source="WAFCQDJ_wbhs0t9GBTwj-3" target="WAFCQDJ_wbhs0t9GBTwj-4">
          <mxGeometry width="50" height="50" relative="1" as="geometry">
            <mxPoint x="320" y="550" as="sourcePoint" />
            <mxPoint x="370" y="500" as="targetPoint" />
          </mxGeometry>
        </mxCell>
      </root>
    </mxGraphModel>
  </diagram>
</mxfile>
